<svg width="150" height="38" viewBox="0 0 150 38" fill="none" xmlns="http://www.w3.org/2000/svg">
<rect width="150" height="38" rx="8" fill="#235F9D"/>
<path d="M33.4787 24.5H31.848L35.5121 14.3182H37.2869L40.951 24.5H39.3203L36.4418 16.1676H36.3622L33.4787 24.5ZM33.7521 20.5128H39.0419V21.8054H33.7521V20.5128ZM42.302 27.3636V16.8636H43.7537V18.1016H43.878C43.9642 17.9425 44.0885 17.7585 44.2509 17.5497C44.4133 17.3409 44.6387 17.1586 44.927 17.0028C45.2154 16.8438 45.5965 16.7642 46.0705 16.7642C46.687 16.7642 47.2372 16.92 47.7211 17.2315C48.205 17.5431 48.5845 17.9922 48.8596 18.5788C49.138 19.1655 49.2772 19.8714 49.2772 20.6967C49.2772 21.522 49.1396 22.2296 48.8645 22.8196C48.5894 23.4062 48.2116 23.8587 47.731 24.1768C47.2504 24.4917 46.7019 24.6491 46.0854 24.6491C45.6214 24.6491 45.2419 24.5713 44.9469 24.4155C44.6552 24.2597 44.4266 24.0774 44.2608 23.8686C44.0951 23.6598 43.9675 23.4742 43.878 23.3118H43.7885V27.3636H42.302ZM43.7587 20.6818C43.7587 21.2187 43.8366 21.6894 43.9924 22.0938C44.1481 22.4981 44.3735 22.8146 44.6685 23.0433C44.9635 23.2687 45.3248 23.3814 45.7523 23.3814C46.1964 23.3814 46.5676 23.2637 46.8659 23.0284C47.1642 22.7898 47.3896 22.4666 47.5421 22.0589C47.6979 21.6513 47.7757 21.1922 47.7757 20.6818C47.7757 20.178 47.6995 19.7256 47.5471 19.3246C47.3979 18.9235 47.1725 18.607 46.8709 18.375C46.5726 18.143 46.1998 18.027 45.7523 18.027C45.3214 18.027 44.9569 18.138 44.6586 18.3601C44.3636 18.5821 44.1399 18.892 43.9874 19.2898C43.8349 19.6875 43.7587 20.1515 43.7587 20.6818ZM50.9426 27.3636V16.8636H52.3944V18.1016H52.5186C52.6048 17.9425 52.7291 17.7585 52.8915 17.5497C53.0539 17.3409 53.2793 17.1586 53.5676 17.0028C53.856 16.8438 54.2372 16.7642 54.7111 16.7642C55.3276 16.7642 55.8778 16.92 56.3617 17.2315C56.8456 17.5431 57.2251 17.9922 57.5002 18.5788C57.7786 19.1655 57.9178 19.8714 57.9178 20.6967C57.9178 21.522 57.7802 22.2296 57.5051 22.8196C57.2301 23.4062 56.8522 23.8587 56.3716 24.1768C55.891 24.4917 55.3425 24.6491 54.726 24.6491C54.262 24.6491 53.8825 24.5713 53.5875 24.4155C53.2959 24.2597 53.0672 24.0774 52.9015 23.8686C52.7357 23.6598 52.6081 23.4742 52.5186 23.3118H52.4292V27.3636H50.9426ZM52.3993 20.6818C52.3993 21.2187 52.4772 21.6894 52.633 22.0938C52.7888 22.4981 53.0141 22.8146 53.3091 23.0433C53.6041 23.2687 53.9654 23.3814 54.3929 23.3814C54.8371 23.3814 55.2083 23.2637 55.5066 23.0284C55.8049 22.7898 56.0302 22.4666 56.1827 22.0589C56.3385 21.6513 56.4164 21.1922 56.4164 20.6818C56.4164 20.178 56.3401 19.7256 56.1877 19.3246C56.0385 18.9235 55.8132 18.607 55.5115 18.375C55.2132 18.143 54.8404 18.027 54.3929 18.027C53.9621 18.027 53.5975 18.138 53.2992 18.3601C53.0042 18.5821 52.7805 18.892 52.628 19.2898C52.4756 19.6875 52.3993 20.1515 52.3993 20.6818ZM62.7999 24.6541C62.084 24.6541 61.4592 24.4901 60.9256 24.1619C60.392 23.8338 59.9777 23.3748 59.6827 22.7848C59.3877 22.1948 59.2402 21.5054 59.2402 20.7166C59.2402 19.9245 59.3877 19.2318 59.6827 18.6385C59.9777 18.0452 60.392 17.5845 60.9256 17.2564C61.4592 16.9283 62.084 16.7642 62.7999 16.7642C63.5158 16.7642 64.1406 16.9283 64.6742 17.2564C65.2078 17.5845 65.6221 18.0452 65.9171 18.6385C66.2121 19.2318 66.3596 19.9245 66.3596 20.7166C66.3596 21.5054 66.2121 22.1948 65.9171 22.7848C65.6221 23.3748 65.2078 23.8338 64.6742 24.1619C64.1406 24.4901 63.5158 24.6541 62.7999 24.6541ZM62.8049 23.4062C63.2689 23.4062 63.6534 23.2836 63.9583 23.0384C64.2632 22.7931 64.4886 22.4666 64.6344 22.0589C64.7836 21.6513 64.8581 21.2022 64.8581 20.7116C64.8581 20.2244 64.7836 19.777 64.6344 19.3693C64.4886 18.9583 64.2632 18.6286 63.9583 18.38C63.6534 18.1314 63.2689 18.0071 62.8049 18.0071C62.3375 18.0071 61.9498 18.1314 61.6415 18.38C61.3366 18.6286 61.1096 18.9583 60.9604 19.3693C60.8146 19.777 60.7417 20.2244 60.7417 20.7116C60.7417 21.2022 60.8146 21.6513 60.9604 22.0589C61.1096 22.4666 61.3366 22.7931 61.6415 23.0384C61.9498 23.2836 62.3375 23.4062 62.8049 23.4062ZM68.0188 24.5V16.8636H69.5053V24.5H68.0188ZM68.7695 15.6854C68.511 15.6854 68.2889 15.5992 68.1033 15.4268C67.921 15.2512 67.8299 15.0424 67.8299 14.8004C67.8299 14.5552 67.921 14.3464 68.1033 14.174C68.2889 13.9983 68.511 13.9105 68.7695 13.9105C69.0281 13.9105 69.2485 13.9983 69.4308 14.174C69.6164 14.3464 69.7092 14.5552 69.7092 14.8004C69.7092 15.0424 69.6164 15.2512 69.4308 15.4268C69.2485 15.5992 69.0281 15.6854 68.7695 15.6854ZM72.9917 19.9659V24.5H71.5051V16.8636H72.932V18.1065H73.0265C73.2021 17.7022 73.4772 17.3774 73.8517 17.1321C74.2296 16.8868 74.7052 16.7642 75.2786 16.7642C75.7989 16.7642 76.2547 16.8736 76.6458 17.0923C77.0369 17.3078 77.3401 17.6293 77.5556 18.0568C77.771 18.4844 77.8787 19.013 77.8787 19.6428V24.5H76.3922V19.8217C76.3922 19.2682 76.248 18.8357 75.9597 18.5241C75.6713 18.2093 75.2753 18.0518 74.7715 18.0518C74.4268 18.0518 74.1202 18.1264 73.8517 18.2756C73.5866 18.4247 73.3761 18.6435 73.2203 18.9318C73.0679 19.2169 72.9917 19.5616 72.9917 19.9659ZM83.437 16.8636V18.0568H79.2658V16.8636H83.437ZM80.3844 15.0341H81.8709V22.2578C81.8709 22.5462 81.914 22.7633 82.0002 22.9091C82.0864 23.0516 82.1974 23.1494 82.3333 23.2024C82.4725 23.2521 82.6233 23.277 82.7857 23.277C82.905 23.277 83.0094 23.2687 83.0989 23.2521C83.1884 23.2356 83.258 23.2223 83.3077 23.2124L83.5762 24.4403C83.49 24.4735 83.3674 24.5066 83.2083 24.5398C83.0492 24.5762 82.8503 24.5961 82.6117 24.5994C82.2206 24.6061 81.856 24.5365 81.5179 24.3906C81.1799 24.2448 80.9064 24.0194 80.6976 23.7145C80.4888 23.4096 80.3844 23.0268 80.3844 22.5661V15.0341ZM85.0813 24.5V16.8636H86.5082V18.1065H86.6026C86.7617 17.6856 87.0219 17.3575 87.3832 17.1222C87.7444 16.8835 88.177 16.7642 88.6808 16.7642C89.1912 16.7642 89.6187 16.8835 89.9634 17.1222C90.3114 17.3608 90.5683 17.6889 90.734 18.1065H90.8136C90.9959 17.6989 91.2859 17.3741 91.6836 17.1321C92.0813 16.8868 92.5553 16.7642 93.1055 16.7642C93.7982 16.7642 94.3633 16.9813 94.8008 17.4155C95.2416 17.8497 95.462 18.5043 95.462 19.3793V24.5H93.9755V19.5185C93.9755 19.0014 93.8346 18.6269 93.5529 18.3949C93.2712 18.1629 92.9348 18.0469 92.5437 18.0469C92.0598 18.0469 91.6836 18.196 91.4151 18.4943C91.1467 18.7893 91.0124 19.1688 91.0124 19.6328V24.5H89.5309V19.424C89.5309 19.0097 89.4016 18.6766 89.1431 18.4247C88.8846 18.1728 88.5482 18.0469 88.1339 18.0469C87.8522 18.0469 87.592 18.1214 87.3533 18.2706C87.118 18.4164 86.9274 18.6203 86.7816 18.8821C86.6391 19.1439 86.5678 19.4472 86.5678 19.7919V24.5H85.0813ZM100.746 24.6541C99.9932 24.6541 99.3452 24.4934 98.8017 24.1719C98.2614 23.8471 97.8438 23.3913 97.5488 22.8047C97.2572 22.2147 97.1113 21.5237 97.1113 20.7315C97.1113 19.9493 97.2572 19.2599 97.5488 18.6634C97.8438 18.0668 98.2548 17.6011 98.7818 17.2663C99.3121 16.9316 99.9319 16.7642 100.641 16.7642C101.072 16.7642 101.49 16.8355 101.894 16.978C102.298 17.1205 102.661 17.3442 102.983 17.6491C103.304 17.9541 103.558 18.3501 103.743 18.8374C103.929 19.3213 104.022 19.9096 104.022 20.6023V21.1293H97.9515V20.0156H102.565C102.565 19.6245 102.486 19.2782 102.327 18.9766C102.167 18.6716 101.944 18.4313 101.655 18.2557C101.37 18.08 101.036 17.9922 100.651 17.9922C100.233 17.9922 99.8689 18.0949 99.5574 18.3004C99.2491 18.5026 99.0105 18.7678 98.8414 19.0959C98.6757 19.4207 98.5929 19.7737 98.5929 20.1548V21.0249C98.5929 21.5353 98.6824 21.9695 98.8613 22.3274C99.0436 22.6854 99.2972 22.9588 99.622 23.1477C99.9468 23.3333 100.326 23.4261 100.76 23.4261C101.042 23.4261 101.299 23.3864 101.531 23.3068C101.763 23.224 101.964 23.1013 102.133 22.9389C102.302 22.7765 102.431 22.576 102.52 22.3374L103.927 22.5909C103.815 23.0052 103.613 23.3681 103.321 23.6797C103.032 23.9879 102.67 24.2282 102.232 24.4006C101.798 24.5696 101.302 24.6541 100.746 24.6541ZM107.158 19.9659V24.5H105.671V16.8636H107.098V18.1065H107.192C107.368 17.7022 107.643 17.3774 108.018 17.1321C108.396 16.8868 108.871 16.7642 109.445 16.7642C109.965 16.7642 110.421 16.8736 110.812 17.0923C111.203 17.3078 111.506 17.6293 111.722 18.0568C111.937 18.4844 112.045 19.013 112.045 19.6428V24.5H110.558V19.8217C110.558 19.2682 110.414 18.8357 110.126 18.5241C109.837 18.2093 109.441 18.0518 108.938 18.0518C108.593 18.0518 108.286 18.1264 108.018 18.2756C107.753 18.4247 107.542 18.6435 107.386 18.9318C107.234 19.2169 107.158 19.5616 107.158 19.9659ZM117.603 16.8636V18.0568H113.432V16.8636H117.603ZM114.55 15.0341H116.037V22.2578C116.037 22.5462 116.08 22.7633 116.166 22.9091C116.252 23.0516 116.363 23.1494 116.499 23.2024C116.638 23.2521 116.789 23.277 116.952 23.277C117.071 23.277 117.175 23.2687 117.265 23.2521C117.354 23.2356 117.424 23.2223 117.474 23.2124L117.742 24.4403C117.656 24.4735 117.533 24.5066 117.374 24.5398C117.215 24.5762 117.016 24.5961 116.778 24.5994C116.387 24.6061 116.022 24.5365 115.684 24.3906C115.346 24.2448 115.072 24.0194 114.864 23.7145C114.655 23.4096 114.55 23.0268 114.55 22.5661V15.0341Z" fill="white"/>
</svg>
